<?xml version="1.0" encoding="UTF-8" standalone="no"?>
<!DOCTYPE svg PUBLIC "-//W3C//DTD SVG 1.1//EN" "http://www.w3.org/Graphics/SVG/1.1/DTD/svg11.dtd">
<!-- Created with Vectornator (http://vectornator.io/) -->
<svg height="100%" stroke-miterlimit="10" style="fill-rule:nonzero;clip-rule:evenodd;stroke-linecap:round;stroke-linejoin:round;" version="1.1" viewBox="0 0 4930 1210" width="100%" xml:space="preserve" xmlns="http://www.w3.org/2000/svg" xmlns:vectornator="http://vectornator.io" xmlns:xlink="http://www.w3.org/1999/xlink">
<defs/>
<g id="Layer-2" vectornator:layerName="Layer 2">
<path d="M4513.69 45.6345C4447.31 46.6485 4371.67 48.5095 4318.78 60.5243C4232.01 80.2356 4219.62 94.2324 4189.73 121.142C4140.55 165.415 4134.67 230.015 4132.11 306.148C4114.6 455.22 4119.94 717.129 4119.94 717.129L3773.14 713.008L3680.91 916.397C3680.91 916.397 3822.84 918.298 3955.53 918.425C4053.31 918.519 4146.52 919.021 4171.86 910.059C4231.58 888.936 4237.11 805.395 4237.11 805.395C4237.11 805.395 4238.97 883.509 4285.97 901.013C4350.93 925.21 4498.33 921.578 4498.33 921.578C4498.33 921.578 4689.33 924.181 4754.42 885.089C4776.56 871.797 4839.04 821.158 4853.24 661.435C4867.44 501.713 4866.62 353.551 4838.45 210.764C4833.49 185.662 4818.88 132.849 4735.44 91.5667C4652 50.2842 4513.69 45.6345 4513.69 45.6345ZM4473.36 221.647C4499.31 220.938 4518.81 222.288 4518.81 222.287C4518.81 222.287 4600.34 223.091 4639.82 264.538C4679.31 305.985 4676.31 392.568 4676.31 392.569C4676.31 392.569 4686.29 557.415 4673.75 634.549C4671.61 647.709 4662.14 680.836 4626.38 701.125C4590.61 721.414 4529.7 719.689 4529.7 719.69L4330.58 714.568C4330.58 714.568 4331.03 467.157 4334.43 345.198C4337.58 321.963 4338.93 243.85 4388.85 231.25C4415.21 224.593 4447.4 222.356 4473.36 221.647Z" fill="#000000" fill-rule="nonzero" opacity="1" stroke="#000000" stroke-linecap="butt" stroke-linejoin="round" stroke-width="20.4877"/>
<path d="M1936.46 39.1422C1936.46 39.1422 1853.87 38.6345 1803.76 38.6345C1732.22 38.6345 1699.26 41.5761 1691.88 41.6345C1666.67 41.8343 1573.25 56.484 1517.74 111.76C1462.23 167.036 1462.04 256.437 1462.04 256.436L1461.12 665.856C1461.12 665.856 1455.05 779.693 1517.46 841.26C1579.86 902.826 1631.83 916.146 1710.81 916.146C1830.98 916.146 1992.28 916.146 1992.28 916.146C1992.28 916.146 2003.93 974.231 1936.18 992.977C1868.42 1011.72 1466.6 1003.54 1466.6 1003.54L1464.32 1190.15C1464.32 1190.15 1803.97 1196.67 1975.87 1191.43C2047.25 1189.25 2120.35 1154.61 2153.89 1091.5C2184.28 1034.3 2180.52 917.146 2180.52 917.146C2180.52 917.146 2325.49 920.355 2357.45 915.078C2365.55 913.742 2393.43 911.805 2417 887.552C2440.57 863.297 2451.57 820.777 2451.57 820.774C2451.57 820.774 2451.67 866.898 2492.55 893.715C2532.46 919.904 2557.66 918.761 2623.17 918.774C2716.67 918.792 2738.47 909.176 2761.82 884.966C2796.22 849.305 2794.1 815.653 2794.1 815.653C2794.1 815.653 2796.77 869.069 2844.68 894.355C2892.59 919.641 2974.65 918.4 2974.65 918.4C2974.65 918.4 3007.23 921.673 3043.64 917.102C3069.8 913.818 3097.94 905.031 3117.38 894.845C3163.87 870.483 3161.07 794.157 3161.07 794.158C3161.07 794.158 3154.97 917.079 3243.55 917.078C3336.82 917.078 3514.09 918.237 3514.09 918.237L3610.8 712.941L3263.4 711.948L3264.68 43.4949L3071.42 44.3431L3070.68 715.148L2892.06 711.948L2886.93 45.5438L2699.34 42.9831L2696.78 713.228L2544.41 711.948L2542.48 42.343L2344.01 42.343L2352.97 714.508L2185.21 712.588C2185.21 712.588 2199.39 401.543 2183.31 244.633C2176.62 179.369 2168.16 135.911 2106.12 86.5138C2044.08 37.1164 1936.46 39.1434 1936.46 39.1422ZM1791.67 223.848C1858.85 218.944 1936.8 228.706 1965.81 252.655C2000.11 280.963 2001.39 354.8 2001.39 354.8L2004.59 709.447C2004.59 709.446 1993.44 709.534 1968.73 709.447C1898.86 709.202 1717.37 720.133 1685.71 700.163C1654.04 680.195 1654.82 634.39 1654.82 634.39C1654.82 634.39 1641.06 290.819 1662.74 267.161C1675.66 253.069 1694.5 243.199 1730.21 233.45C1748.03 228.583 1769.27 225.482 1791.67 223.848Z" fill="#000000" fill-rule="nonzero" opacity="1" stroke="#000000" stroke-linecap="butt" stroke-linejoin="round" stroke-width="20.4877"/>
<path d="M3629.63 1189.25L3425.79 1188.84L3792.08 208.912L3400.93 210.324L3401.27 42.5095C3401.27 42.5095 3847.76 40.4795 3908.53 44.6345C3934.18 46.3889 3972.56 45.359 3991.09 85.5099C4009.63 125.661 3978.97 212.393 3978.97 212.393L3629.63 1189.25Z" fill="#4da6ba" fill-rule="nonzero" opacity="1" stroke="#4da6ba" stroke-linecap="butt" stroke-linejoin="round" stroke-width="20.4877" vectornator:layerName="Curve 3"/>
<path d="M1361.92 232.901L1360.84 45.6345C1360.84 45.6345 1285.56 45.1335 1204.87 45.6345C1156.98 45.9319 1108.08 42.5807 1073.83 45.6345C1033.22 49.2553 989.53 69.8344 978.844 106.018C966.593 147.502 970.972 706.651 970.972 706.651C970.972 706.651 554.546 705.933 376.035 706.128C298.451 706.213 287.468 651.053 285.485 615.631C278.085 483.451 282.793 361.88 282.793 361.88L87.0432 359.801C87.0432 359.801 87.6525 458.602 88.351 578.488C88.5751 616.954 84.6454 701.015 103.017 763.759C123.693 834.371 194.13 881.715 243.933 883.954C333.452 887.977 672.902 887.231 925.765 885.756C1005 885.293 1079.66 888.034 1119.23 869.101C1178.13 840.917 1165.4 790.298 1167.14 727.818C1168.37 683.835 1170.15 234.088 1170.15 234.088L1361.92 232.901Z" fill="#4da6ba" fill-rule="nonzero" opacity="1" stroke="#4da6ba" stroke-linecap="butt" stroke-linejoin="round" stroke-width="20.4877" vectornator:layerName="Curve 7"/>
<path d="M925.765 1091.5C925.765 1037.51 969.073 993.748 1022.5 993.748C1075.92 993.748 1119.23 1037.51 1119.23 1091.5C1119.23 1145.48 1075.92 1189.25 1022.5 1189.25C969.073 1189.25 925.765 1145.48 925.765 1091.5Z" fill="#000000" fill-rule="nonzero" opacity="1" stroke="#000000" stroke-linecap="butt" stroke-linejoin="round" stroke-width="20.4877" vectornator:layerName="Oval 1"/>
</g>
</svg>
